<svg width="24" height="24" viewBox="0 0 24 24" fill="none" xmlns="http://www.w3.org/2000/svg">
<path d="M11.9995 7.99798C9.79605 7.99798 7.99791 9.79612 7.99791 11.9995C7.99791 14.2029 9.79605 16.0011 11.9995 16.0011C14.2029 16.0011 16.001 14.2029 16.001 11.9995C16.001 9.79612 14.2029 7.99798 11.9995 7.99798ZM24.0011 11.9995C24.0011 10.3425 24.0161 8.70043 23.923 7.04637C23.83 5.12515 23.3917 3.42007 21.9868 2.01517C20.5789 0.607278 18.8768 0.172002 16.9556 0.0789425C15.2986 -0.0141167 13.6565 0.0008929 12.0025 0.0008929C10.3454 0.0008929 8.70336 -0.0141167 7.0493 0.0789425C5.12808 0.172002 3.423 0.61028 2.0181 2.01517C0.610208 3.42307 0.174931 5.12515 0.0818722 7.04637C-0.011187 8.70343 0.00382259 10.3455 0.00382259 11.9995C0.00382259 13.6536 -0.011187 15.2986 0.0818722 16.9527C0.174931 18.8739 0.61321 20.579 2.0181 21.9839C3.426 23.3918 5.12808 23.827 7.0493 23.9201C8.70636 24.0132 10.3484 23.9982 12.0025 23.9982C13.6595 23.9982 15.3016 24.0132 16.9556 23.9201C18.8768 23.827 20.5819 23.3888 21.9868 21.9839C23.3947 20.576 23.83 18.8739 23.923 16.9527C24.0191 15.2986 24.0011 13.6566 24.0011 11.9995ZM11.9995 18.1564C8.59229 18.1564 5.84254 15.4067 5.84254 11.9995C5.84254 8.59236 8.59229 5.84261 11.9995 5.84261C15.4066 5.84261 18.1564 8.59236 18.1564 11.9995C18.1564 15.4067 15.4066 18.1564 11.9995 18.1564ZM18.4085 7.02836C17.613 7.02836 16.9706 6.38595 16.9706 5.59045C16.9706 4.79494 17.613 4.15253 18.4085 4.15253C19.204 4.15253 19.8464 4.79494 19.8464 5.59045C19.8467 5.77934 19.8097 5.96643 19.7375 6.14099C19.6653 6.31556 19.5594 6.47417 19.4258 6.60774C19.2922 6.74131 19.1336 6.84721 18.9591 6.91939C18.7845 6.99157 18.5974 7.0286 18.4085 7.02836Z" fill="black" style="fill:black;fill-opacity:1;"/>
</svg>
