<svg width="24" height="24" viewBox="0 0 24 24" fill="none" xmlns="http://www.w3.org/2000/svg">
<path fill-rule="evenodd" clip-rule="evenodd" d="M4.65 16.8C4.71986 16.7069 4.81045 16.6313 4.91459 16.5792C5.01873 16.5271 5.13357 16.5 5.25 16.5H9C9.19891 16.5 9.38968 16.579 9.53033 16.7197C9.67098 16.8603 9.75 17.0511 9.75 17.25C9.75 17.4489 9.67098 17.6397 9.53033 17.7803C9.38968 17.921 9.19891 18 9 18H5.625L2.25 22.5H21.75L18.375 18H15C14.8011 18 14.6103 17.921 14.4697 17.7803C14.329 17.6397 14.25 17.4489 14.25 17.25C14.25 17.0511 14.329 16.8603 14.4697 16.7197C14.6103 16.579 14.8011 16.5 15 16.5H18.75C18.8664 16.5 18.9813 16.5271 19.0854 16.5792C19.1896 16.6313 19.2801 16.7069 19.35 16.8L23.85 22.8C23.9336 22.9114 23.9845 23.0439 23.997 23.1826C24.0095 23.3214 23.9831 23.4608 23.9208 23.5854C23.8585 23.71 23.7628 23.8148 23.6443 23.888C23.5258 23.9612 23.3893 24 23.25 24H0.75C0.610716 24 0.474184 23.9612 0.355702 23.888C0.23722 23.8148 0.14147 23.71 0.07918 23.5854C0.0168903 23.4608 -0.00947761 23.3214 0.00303087 23.1826C0.0155393 23.0439 0.06643 22.9114 0.15 22.8L4.65 16.8Z" fill="black" style="fill:black;fill-opacity:1;"/>
<path fill-rule="evenodd" clip-rule="evenodd" d="M6 6.00042C6.00011 4.84576 6.33339 3.71565 6.95984 2.74571C7.5863 1.77576 8.47932 1.00718 9.53176 0.53218C10.5842 0.0571828 11.7513 -0.104051 12.8931 0.0678256C14.0349 0.239702 15.1029 0.737388 15.9688 1.50117C16.8348 2.26494 17.462 3.26237 17.7751 4.37375C18.0883 5.48514 18.0741 6.66328 17.7343 7.7668C17.3945 8.87032 16.7434 9.85236 15.8593 10.5951C14.9752 11.3378 13.8956 11.8096 12.75 11.9539V20.2504C12.75 20.4493 12.671 20.6401 12.5303 20.7808C12.3897 20.9214 12.1989 21.0004 12 21.0004C11.8011 21.0004 11.6103 20.9214 11.4697 20.7808C11.329 20.6401 11.25 20.4493 11.25 20.2504V11.9554C9.79945 11.7727 8.46553 11.0666 7.49882 9.96977C6.53211 8.87297 5.99913 7.46094 6 5.99892V6.00042Z" fill="black" style="fill:black;fill-opacity:1;"/>
</svg>
